<mxfile host="Electron" agent="Mozilla/5.0 (Windows NT 10.0; Win64; x64) AppleWebKit/537.36 (KHTML, like Gecko) draw.io/24.7.17 Chrome/128.0.6613.36 Electron/32.0.1 Safari/537.36" version="24.7.17">
  <diagram name="Page-1" id="OsbjXzIXNkYfeJ9l0Reo">
    <mxGraphModel dx="422" dy="819" grid="1" gridSize="10" guides="1" tooltips="1" connect="1" arrows="1" fold="1" page="1" pageScale="1" pageWidth="850" pageHeight="1100" math="0" shadow="0">
      <root>
        <mxCell id="0" />
        <mxCell id="1" parent="0" />
        <mxCell id="1OXQ0apKLfX8KrLx_QUD-2" value="" style="shape=image;verticalLabelPosition=bottom;labelBackgroundColor=default;verticalAlign=top;aspect=fixed;imageAspect=0;image=data:image/webp,UklGRsplAABXRUJQVlA4IL5lAAAwQwGdASqAAm8BPlEkjkUjoiGS+24YOAUEsrd5LHx/c9wrfX6zEcCUZNX/ed3zOfxj9l3mGzf0n4W+PfHV7M5b/2v95/M/5nf8b/d/1X3bfpv/xe4L+m/+d+3T4z/WX/XvQL/Lv6j/4P7v7zP/H/ab3Pf4f1AP6F/k/TO9jj0EP229NL9sfhX/rP/L/bX2hf/j7AHoAf/PrP+qX9x/GnzMfpP9i/wf7Jf3f0v/E/m37R+Un9s/bj4W/63+5eTf0j+D/3fob/IPsr9+/sH7e/3X95vjH/Ff1z8k/SX4dftv+A/tX+1/xP7k/YX+Nfyj+6/2n9uf7h+7/1vfD/qv3uuk/7P/e/lJ8AvqP8w/xv9w/0P/G/wntj+wf6H/C/t3+//yZ+Of0j/L/lt/f///+AH8Y/lH+A/t/7bf33///8363/u3998Zn67/lP89/pPyZ+wL+Ofzv/Hf3j/Xf7P+7////nfiV+8/7n/Gf6L/1f5/////D4oflf99/4P+Q/1v/1/x3///+n6CfyP+ff6P+6f5X/4f5X////77m//Z7hf2a/7P5//Rv+tn/k/P//3HQgKPhx9ywR9ywR9ywR9ywR9ywR9ywR9ywR9ywR9ywR9yVrD5jUXOCMbHUek6w95g/lVLmM5u3/e5YI+5YI+5YI+yqULl7q3TJ1h7zB/Ki3lmFzRI9c0I80rLbghLOz9KJ3CK9znrokcfcliy4TmmRz34eTyClycuZ7MKYCOBUk5rsdgjnRrA8yq85eVAzP+hgYv/AeJ/QtQJO0fYP+u0pVdwvZ20J4zsRJ08N83BZcjObEeeWGBVuTLC+yk7MpmQofoyXifWobeKhft/lAN6ZRgOEcgWz5uoWCzp99T3cPvR4NNhRKYSM7eY2raJvOSSlDKXl+IQakbrzRPFI7KIlHrRKQZJA3KH0aXEIl4Wcj3gXsZSn/uJdl7u8kEcSknmc5dCIpyF+e3bofxaViWZUKARRqsbeRFyjupIO3VgOKP15OkQmZCh+jAUx6i0djpj8ydu7PM9D0ROmL9a6V5/YC3Yc+ltygtdI/RCND4wNcsLOxZ801zZy200kHWR/9dmQk2uiaCAWobEgaFu5MmuioavlHJiv5iPOUz5b5ZXBJAOFzRfhRBkLQfxX31GsTZa3HSxvFTGX0tvhHxVAM3VIULEop3giJDCfShi+oANggQRXegJSek6f0rqlia1P2DEEN3pZ4zFrDBtOP+lSepXmJiR/w3P6jGvqKkIetJFMI4PVoqT6FuQ/JZGf8tSvzkBpv39aE/biMkwCQL5J2EFd8Uj40ouOGc/yoiLe+Q6SHump03u+JAPUZzb6+Foa9XceXr8qSeWs962nzYaD/Xb/xBWWpVP7nYhOJzgfiEGjdpIyYtAVCc/5Ya5dfljksyAg5etojeJVpdlUkz8B0hamn8z0jWh/8oVz5rhZ1AMIN50FAv+01YMM73KaunpjGOS/LfR+AnsOCOpKipJWDzwCXvKxfyQFo4QeQSYHGkvvtLhQLKd5hJ/KLW0v5p03gUVPC7Q7GecmXhlbhwoUUxvO3ksXPCXS4et/b/4UORqaIGATN6Q6CSeD1aO4btfvD9z9JcsrgkkE/r31HjfgztxK+UQq/7zuPJa+71jGXNzcCxIt5VnnjokFQ3FCMngWIJBxLPIKZz2HnWisQheWGt467LNOM84oy6Z+DunwsDl85k+Gs4K7XTHstxjXEgW+7Am/73XOFYQL7Lot14Oj9wMWmut9gOJb6oDaL1j0Dsbrvhbqsfp/I4pFKIFf3mVjtNMd//PbdAPP4nkug5/YCvt+fcJOZFGBOCyhm6exSbA2oTnYKJ6/FKGyyXbXW3Z+VS1l7cEyr4l0uP/ZLk3MxWNVW2oRTPU8Hi1GBhZF39MYs4fDsZXNHRUOpMadVEnlIlrll5JhGIVkNLZl8gH8NIMsQMI3d5IxZOXdLAKE2ISaiGAHyhcmFLUoOVr1vEEH1RDkyVv5jJnAm1Coem9S6l22LgWfkb8eZJbdGDyF9LZ//MmmNmKzEqz/spQQ/j47bSKx2HHVT5TLEsnineNGARMcQPRJuizT6fprekvxsCBUWhUeyfE8l23F/XFbUSehxCrgBVNdOzHs52zLH0jiBir8LWLjeYCsyZm+VmpGXc/s52EDyQ6/QjpykmqdAk99Qrpq7Q00c2q1yMkkBEORPRHil9m2EbCtnD/huBIAyfWYZg5FIJtv7AJGhH09VAsW3XsbX/QZS3B11KXotD0sytc2qEomK4G1Gn0qQLo6LgOo8kcOeId/aTKit87xGNo4JqwXWMeN6fN/IxVya6ugYBNBieg0nN0a3nK1T5CgTWWG4FniKhSlKkK+qSae2N6ryRpgarTm6fVwPRZrM/oFivdXdEJcBo0Q7QA14YJw48n+vpicZ/IU2wJ3pRSkD+Xc1M1dN35WwNeTJxAgkPs9FhqI3Hmp30aHu6cpY3m1uquARFJeQewct11ggTB+37Iqwin9OiSVrKW+r8LW6jcFWJr4LXT4/0/WMgC8miAUK+TdceO9gJ95T5iFiINeGA4P6fz6fuOPvM85yXxMLKm01jFCShIy3aVB8sNxkRsYndRBWessFQIMNOp6f8Wk5A+ZVV/6PPwJ55C/HsXGhY16WAUO7qQLNemgQSRFUlhzlBRS1evLLXX2cQGSU6sKlZ+r5LdQJXyD+/NuBUjQEuysbQCVBP6Q/e2TIUwQ+zyXk9x5wchgNufjcF4q/5pAlziCUDCd8HTj8JsDupY7ns7WGaj2zPTVPJ/UHlJm5oKcsBQUAWyO47oGeFWp2jFS5N6BJnlEzSic32iSVXF+pgBdqwU3QDYXpNflvPwLE7RpMF7QfNsVgsroqusRhLcZK4R3e+5nwRKYi+i/2RaOcWTOtC+x0AIQdXIr4aHlQ39u7Z6W77I4EHXhFpae9mTkANJOLiOLKCBnd4xNx/o9sovZfNIs8FBbUMJnffoqbujBrvbnnZFeaXf8bKrQOyiYDzEsk3v4I1CKoWBbCySm8NxnhhqpuyAaaImvLErjdfqiYt64l9Kr2iTOPXVYw6fdE7SmZmUXLHnDa/YN55lRJwO5KSVapoGpaBvrFHsVHs09PHsI794np+cF4mpeYo0xE0R0h6FumEAGh7cR5Q1fqXtI0HE3YPClbsCWx9yZFxpDad7L1uWW8rUB15bgz8EOp4fVNXXYmkIj+cUVy1EPWw5P66ZnBdSTr+rJm5oKtzv7ZLw+awdbhnbtW/L5M4EU0wtcoH70NErXPpxtn/upsgYQIvvArK+V2S0Lql1EonJJ/uCqWtcrrJSu5DZ/9VDLgmo+5MGLVMz3XzdW4m+xgC2lEOjPRkOV6hhtuuwYD9W3k+lE7VF6Pa0qKraF3CPuWCPuWCPuWCPOVn23Fz6UTuIs498C2lzGoucEY2G+je6WMWqGXBNR9ywR9ywR9ywR9ywR9ywR9yMAAD+/8o8AAAAAACQpozHaMurfApyOM7ohGFVAI40AgAncA9ooWo14m/p2IAp2GYFrkv5mulHcvJgepmMQJMOWMYW8uNQq/puDRy/ACdVtd8AhLkby1RD7wLkLb7etRdRJa8emiKnLzOPLGtq4Pvy1qXTN72rSmOllsZ6XeDiGJviqwW5k3FjuFz+ID0hP2tuoKPS/YAGExLkpApf8UphB52r29aDAqZcByZmziabWbKG97VpoT7F1zNjUesbvFJJ16l2/iV7DbkEcohm56MULJpTi25X2oKSzVIQJ54HSpd4McGn6ncNIE/kzbiNi79hKb8kbGyYmVuj+ELtEIDIgAjE70NowZW7l7MdTzo6FfDQYB31/fIqJtHPk3bAayDerK3o6RbW5ygnRCea/vODZMWl1JsgDMD4jpPPnTwzHfBCkxg3L88Qxxmm1mjlsAWFxoXuKmCpVOU7Q97Q8xa9zoOMw02qqL54qIE08ACu0ysyVR1H3v96KVH+PMh3vRGDZl3XnD/c//5ryNKc00I0jEQRR/PhENNfx3MZEH4rtFL0KJ7cgc+ouNZsgKh7eHIBgBxxXwCSBmEP7k12EyLcSFG5jjtex+wPxqjgj7waDa3rR/ji0VlqllA3LKpp/8UgzTWlgvboJ6jdUOIHzDN40Pr4kALAoCjFMF4pu3wH5LdeJa03KdOBH1LulBf53Zp8x7GtJlQ9o6v07d9bl9vmDa6v2Wpqc5c9w/ljpsTGqlq3UoBiUczsTm5T9q3GEzfX+vVaZehqzs9IhbaYFZ5jyUI5+Sj7jBqUmTyhz1egfnC6wxkUfoZQJg8O3u1jlx7qhSw55Ec69XPfGF8ywHhbGUVlVu2IkP8OLr7zehvyxSz5I98dCVefQd2XduhLQnrHqdxYn23KZLXFbdKMFTzsLSXD/hy9wGQEvPOwl42iQqG8iFwgHVOVxyNOHP7NJdUooJ0Wz8wa1ss2Zb5fdAIT522fTyvxGKRtTXspHXQOGbxYdU0e0AKXpGzlv8ORoEGR1tRfsmSUl9S+pzJPPldbGmj9P706Ihuq+XrAUld4KdHPdNiNfr8GG1OM2jCNLD/q3ObHFtl7BJuvUIESQwcFJQQvlOGeLydXNO43tTa+WlTrD3IudPHNoKBCBe2zU/R6ONiJjVo/v+2C4pF0s6Lg/+6s6dmLoKd3U6cDVIag5h1zIS305GWc5Y7dk7WfMWtaWDuuS7a32F/p9zdtBRtWplBQtp4VbxB49VqGuscRg9cq/hSWeRfEP8B05giMHYYmiGTIKt44yFHZWHLK/FpdCClWdbzn8cMRgIl1HkDYrVbJpwci3R3Y8aa8f6IZdAs2jTDBxLOMG6DuN5fKg92rn19A88bYEKHxH8PhglppTJofpWaIQTrHz+IVxmC41/hN3CtOo+EHReIhs+ZjoxeeA8mTa/vzQvQfx5d3nCiraYqffpgPCaFomEPgTuI890qcCuB0p5f6I8MsMUc3JKhGmSvU3CFbuzH7m0X0mCRwOvQHVJmPfa7rgpL/xGq0xFhoWT8r/c2JcF2JvgF1yIyBYE999FrN0TK4LIk7s3tZjZf7Az0f2hjma4C7MBWytb3ZnYwVBxCK+XZ9lcoH7lNclEGlWoIAB6Jee3dK5qi3RCo2gFsSf7ZWaTuVoVmzLsIxopMXkewY5HsVQ8X4XESA+H5nmtfRIqTxGlCxBrZxV9r6GyQQlH0GeW7eycrOlaDTvr3aKXkkyme7Zlmps+4Wt9KdmPPamZ37q/USeuexGxsxxxEk42G7JLGndZTa6zDwkxBOs+76Tt1NBfJrVLwG+7z2pDkQancbjZ3JxTlQDs5cBnG+CCkPNuJqNrgy4EoL5GuuScUpyBRsC0fx83fOMoyw7v4Gw8oaEH7egLfv5if3Zk0VK5e1ThaxKJ9Be/W9BFxmJrUVZmqRe75ofnB730lFsgNX3i61NvfFU9Bj8Qr1Ezi4Ejs8hLZPjnb6yZTHMUI6Cu05BpzoVrjZZzpSmKXyvi5ObpEU7Q72lQvrXhsdAnRBCuaUgcvHLOVlMMO9m5GLJUetpRonY77SlCRaioirMiSZCvs0tWL66WOnbb5l/6uRbvOTCJwWMWeFQD8PMhX+TJkjMn7DI/6+rQLnHvyQKDCC3CPpC0+ZRwtxWYwD7wGFOZ5mIbaKzz1UwX+wzJrFLrHR5AbGQ0HynR5pNvl2y4eVKCOlKslHSrD0NdQB2OibIUYSb2fZAnSBLP4m3Y+7G9IlDGSR9sEkOnGxmF7gc1VV+rhzFoAIbhd/ZCJ5Keu8EvQdAcDrIBBxWLxIGe+BkXhNl6lO/T20yPhj17mNxkUN8vi5L5UPtqZa00bMaE8wF6+d+dh+smvp6a2sND0kZUsEnS2XXyTXzjbqr0nR0wQBIYOWdPHo4cAyY2EWWMDvaYkr8O2CjOGQ63Hl6inMSxZ6AWwhsp4YD9YAmjLbe3lYfQM++uzFCKCYUj0IvSUGAUYgTPmaBjuPevfs0St3wz2PITptFHva5zjD01vCOqZpEB+QoTWi29ESGh70ohIPYnD1vitdEqEykPFsFrmi9BXZ/fnxHbM5WPz+16LBBm5HzDqn2uOLcTO9VsyiPbH08Wdh8/i+OUm9Pcs+SlQa/T/C+n+qfy+uekG0p8LGPQs/KATUfKj6/jhAz9/Ib4xVxOKyIQoISyS+zPNJDaU7AUwVYr9Au7Z3ouPafNfEvVe9Qb5vKCLwNIo10u9NmO1smE7s8U8VnD124Ifk8w6MtGvK90P9NwF0VmRICH2J2L0ViSbs672iYFGGMegSL7rU2SAvo6uLnZZp74WtJnimsWdre18olaKi/+JHlcZd6aITn3gpmdv1schMfgOlUDdeknNWYNZQNj9MMNayAr/rwQj4V8SfzbBveum/Ox27KHmJ17OWfr87d6l5DIdaoUNzyiQ791BDsU78R/vaLL1Nhb8CgvXJu5CJKgL0+WK0Egyj8z40yZ30a3OuS/uBqG6dWvo8RhsyHDbiVb09e69cSFmi+HDcHXgy1JtCBC7OLbnTqyZA57Jc6xSt5R73Re0V/IF0GDCT8f/nrV0qSQrEa0D8rMT9upp3aElRLcwvPMp7Pi7feS69rAPCeHXxSTprr0DWABFeVk3XGU8hKJFlfHqESHEIGRbIU0z+A/4KLF3a4boP5aQZV3EHrQVpYxbB70f9sh7n/v6oGE7WCgNvRLHR4R1Vdmt9q/s0vQ3/byQ17jgxf0Dab1e5ak88jDGSjsjjrj5Z/xqW6BHfDmpLYm3crm5Pe23oOfuJVmtN+6DGqul0elpzV0ldqnTDlAm3D6ZNFNeJ9RcUZgIG92Ns9NGTsv/kf5AtKZFjAJF6Te6YuV3C5k+SNptc5inZZtE3Zu6PXtaxF+R1QstTq/NrzZVJLwTS5X/OpoWfHRONRq3IYy0JSsqyvbnN8jFQWyC/ezmwJiiVg9xBXdQixcUoPhygU0cv3clVykrXZ+y4AFXviiPX3F+iy0pHqg71QVAZSfymVs9MWgJm69DFVYCoLq8/mYlGByYblYNHBglMJS61AUPEIoyD1jejrY61rfXPZl14dlXk9n5uct1NqbcS/loLXZXbaZpqhSU36PyJpU0gQOFdsw3CQlM496KzAKCv6lEY8IYnBtSozPsce/TLN0O0Wglq69hQgpAa7WB1viYXL5Z4Hm1ipEoHSs7+1Hm2W0OkM9FQ126GclJ8eU7I4+6eGdnW1BJhzDpewxpnxT7Pj0FT7SWQnNVIT7mdwc5e8/zCosX0ZEmzaSXmxQN6K6SVUUGsa3e3t4LAYigpqtzljBA4P1Xxurfe6ktY7r+BNyp0Hgke9P/ZmosRqvw6T8nQbnmvwvJmuypD74no7/2MkY1Wo/xhCsiv4xOMlN4hK0QBGvQxplZY7UqTCY2tt6M2wVjKE63j41ymKevGAfasCFg62vC4pKYTotDp0fVWiHuW/dS2wsHwSJqPFCMzlQYQ4JJVekvEZ6/BKbRAqGQi633AlaYoKBlK+6n67l7C37rar2LqhZcEra/z09kqHSWsI0AlbSVFlSSJUVnEasahV3G6gXIDAq2v5Ri3EpYkBDA/oekpEUaE5vLNdB4cmWCi7m6x9UHyzVCaeDbaTcfVAb78z3iaiJW81gzLFmoJrQ5TNWKi6Z3hSLV2HhsHFw40E1e68cQmknlqYdF7aFuGQ8yfimMEu7DCSC8Na3FJ7s3euDklIj5X0E7FcJMCeSUu0U4G/F8S9lCbhCHFqaJ77XK0j0xARO3oGBQITexwBeC60MPSscLnwB2k2vKasZi7Ew4EMpenBeIPQ/bUqTv4hxhEjfgBIrLstWB23++AUP7taHx6KWmMGpNbp8+ryEUMOr0bl32tmlQaZQcgvhEboE/t6yXYXVRFkMRjPc3mPMSi3YA6snz+fLw/H/NeJjA+9eoTh+siI6REGaS5IJaSah13XQZPNEas7daw+wzIiyzKTXkW4JJZUJFx70rDrVk8yoHSNkiYzVuw+vWJqWgucm0bjGZs5yHdfuQAqFzo9S09Wby0ihYZGYRZufcxYKxa/Er55LNGAqqWOSIFdh/VvaXUnjQ42U8S22a68f7kxxpf/YjTlSk6bGH1gJQsECP1gJUC9rGxM8Ris8/AAanjTAWjbbvjRwav1MUqwi/31GKIIs4XkgjoI9fYfbdc8xB8pEMMzLZR5/J9S2X3UYj7R6l0RWFIFeaDHi37kt56nXdBjwclx7MF2G7qcNsiMruZlb62nrV+L/3lXWwJQQS7RgL7c8fwwZkM5NbZEatiZC7KftoJUNxkLF8RtlScMJFjfmTDaQcAMT1Zo4dGf5DUtppD0r/UQekJJzcgPpoC5wWuLLsii2LlkcyCPu8YEvXSmumhl5QBZZYDKIMb+QnJQxra3JiFBpf2pnLMCWEePLG/bXotKeF7MQAeqo1WYIQ9UBoK/4yZPROx9Mf7FU9XT/7KzD0s9NwHVzXYjcpxZ/0hGP6FnQTnZIjfsEGH/s8kyf62b9EIIL6Pbb6U8aKuH3H8SwQS28H13FvVkfZ2WLF1/r3SxyU2WBWLSL7lV9t93ZiRT/WIiVdCHg2Kj6PH95Y+N2dYQs/LKwak6rfCpcQ7V04ILx8Y6V+DnfxHqs4aMGFsF0OCLPmon6JQt2ix5MwgtCPNuWqM7tbPqUvq2uGek+TY26AY0ZTWblKEgC5fi1XbBnslCerdddSIbEGXiR6L4eoszXm6VbwCcCOjr+UODs2i/WUFWGo73SjRFm2vCpRgBrQvfx6Q7yWNwcVGkkNLEAWI4Dgksr1lrrrspZ+2wYp38IQBgbgoHQVVdlwvlq+m9nG3V/mzJfGca45oczC0tEOXbp6sjBDvQNQFqok0RHrIQ3K9vt1fNzoT1FjwXrpkeLdq65l3oE/UESduWuQPas3FS3SdVENwtp+WbWc5p344bIZ8dtB/CwFhkd9hiuHBcEa5Lh06lkITIbW0d9Tsw4BVe1O9PgWm8GanKz7UmDbabu8ntDFNRIamHdK0r2+sbIPTQjcshvpMBW4n/E3qCt4yq5Z0qKKIG2df9civaW7qkqsbnonaomUTGtvEE+ckgWtr+TTHbORgR7Lmi4kLoRZgHvTvzlVTCzwC9pQwo1kgmWjgmnEQcZfoYkX59M8Cwqs/QMpmcDf2mLMLve4XVEppLX5MOq9RFtHvgrkWVgxPiFNZ8sbMYeOlhNZv4gs2PY0na8N6Pyc0kJDqiJU+Zp1LT+ApPs33gPphP7B/3RvwfLB4+6+cC2n5KPIIywN0f0ldGM3JGT9t6shQc01Nrh+fyiCVlIFO+l/igdCvsJNG8+OhvjsPAkRC/fiW8HKjz5z8cAySm+N4yRfxgRf2Rg5NojWDs0FF/D+Yfva6xZmyzMoVQ24/18gQGYhb9RGlGtOihBSibKQxY5ETGHzNEh/2c6ZR2g4TI3jUNQhCHS/pDB+as7GSvlxbKmhtQn6LN8Gw9QVVqIum6gxm6mlBvIo99mYHycsJ6NE4lDEJVp5/igTqzb8jDQRbA2TSQUKyXajdnwHcHzp1ERu6LVSaSduoMp2k0ym/Wccq5EfHPcWkyjyqUPgPwVXHvcrsBkYTAdF4w46a1X1F7m0u2LS89/cfGNmuFlsfP/8tMW1WelHzGQTClE7xO3OH8hfoPVftFHT0AsnRzRlvrw4YiB2H5op3VMADol2tniK+ydQEmsgc7OpxLIYuV6Trsaf6m4k4O4kSxxdhlZ+zhsMhM6S40/slXF57zbY884iE6kjkWhpehCgqYfruEyjCYdy5qVxHYmWtZ5IWdU/JIQQEjjvEb4iRQC5bGnaoKsRcXejhKeudeD1H5/LI4eBpiuH6br2w4FOjJcKzVtfHCKMac/TGKvh5A0vJosSrm5LersYzpHCui8CRmvtTF+GQPT8OonZv1qdJ4kg1orOpdv6Uy4s8q7QFa2AevFyJP4zl7SYpvkQRoq/fSoAoSQCyx3GWX1L2Os5xb1zq8afwG/e9UvmtlFAavklaSb5IE72Pa15cQZhg5oRrsr5KPhrsxXiYq50bVApzQtYo89CIBo5GQiav2UOqVrMN13EFh1caovFSPV1ja3aIwsypVbwGQr/kdRfl7F/v/w8gP+Jg6t3MgfoDU+tZRneCFZczjs0k5qIQ9Jdv3YOLRZEQltg7kNALcFFld9jkyueM4Wr8V7AzpJHYj3GxBUM+Bbj4JwhVeZegEnKoz0ib44oVOHHxSVjcREIdGKBS3aAauzPyyuz5YiLw45w8pSLD9l/30fj3paDCcjmxKk+AOoM3wZB6of+kBZk92zPnAA3Yk/TfQiEvSjjBQqMYF6GvKSGLnStehNynnEKVVX69s86Tg9+3ZXeYGKp4vuyiMsYzADJ5y6miWKZCv3Pgq7Nf9qwJU9A2lW7w/iC0CMBFgkFFEwSpU2gkru5G5Qs0PYVo+RX4zEtOvqQbaPuEJVkTuA9Ay0+uHBjoGi1ULU3kKYUSGRzOepIGRidr4Q8WPLjHTLXurnAvLEtanYZTV+5SGoonNZjq7nBWcImj6kZSQdu8cXVUaP0Qoeanylil8FqFBNeirU2uHTS9X4j9fQpZ9ZT9iBjFAkhp6AtwiP8tlRPRZQuyy0tmOXDTTDGQXnfzT8d96fl7/gg2npGo3hvhcHdF3qcIUxvKrMbYA5Du4P1JAVB9LxFRblteM5r6cKqPFwXW7vyxZYGwg9NHl8/l6HcI7Tm1I6EaFHO4raIJnm14bVdY9UegUbR/qjOs9u58Uzcse2YpCAI28cliw/1Z9D+41SCBOTVYw/UngL69S9kJH5zlAWXKX9nKKtN92eC84fLZSlI7Q7GjN/75JOc0C5VJnmkjerwJ57GLB8t8H/wPj0MbDUpe21Pp5Sfxs9H6XxxI1i7+miQOlFCIXqMaLvYpVBJ2aJ/DTykQtlUGKJeLT5FAj7+IPQ7CpVW5G5YqHMaL4G6W0CHSmKzIY1fZY8FoppZjA5J4x1pKa21zKhMDsfHQW3Uw2QdMLQsU91YJMVbUf9K9aJQE57TeKpTMzYBL5SsDDWkPtMEN/CS/bgOKR3Issu4FQEoNKlfJc3yV0GyVwKkWTbQYRzfGEHkFrhWiWYZ6CKJITWOJIrMwcv90OfufLimxoV6Sv5DmLvAPBog0vvJTdfDgZkDHEyzmH5QVoIe2I+luBmpu3GAxPeyU26ywB6pcFoQ6u81JpQuBJOgx2cOFsmdMrj0sos5Cle/Yv5HAPT0JTvMb/EUsqcVrLJRF6IJaTknRu2CVOwsYRLwfAWY6ckKu/HTf0M2CvY5I1u2okqlAg5PdiGNBCerdDZiGOMmpv23m8yoTJ5a4h194sfI91YfANxw15qZ7MOzkahPuLnspBubaq0cuWMkiZgfgtrlP8UksYUGmwMI8dGePIMeKO/5CoRwd3kHYNVwDa7gPaX2pGXf01ynSLokqqnxZU327VGHNasva8xnu+ueWLbDWirg5Ei0Kr9GjAWQZ98eCMAnOZ7qlXAX38O2xJVDCSZHoxTMHjTneBNHuwu9A9QaeVG6YspALjGHWRuh8bKTbUMZ9P44m/lXUs1/NrGHtEu6jpBz6URjlNm9NkaKFYWd74sIKNLskQzY6V3nEj+3vcAMbRpOJIpaQt7naFFN8OoylaApdBx/1mkAdiPKz6lVProhXAYWWYysvQHHAz0nSE6qAcmbaFOKSEsk3ebFZVDPM8VO50vCwp710Bff9v4gNpw3VBVm8C+BJXU6YsTpVHweZB0g3ZWwxzE9UVdHXFtoWQWv2R4RaYjgtPiKkCngQyAG3INlN9Ocpcrzr3bWgcsN/I83ro7qyg6bYF/XCzY8EtjeAKlvGF8opiE1pnLuBbEZ2gkSyfn9mT1FT59pUlx0xX6NRkiHSWBI0u9EtKbwB7191Ym61CP0ooaK7Ko2cHI829PqIR3Ci4DN1SxN2AM/j9Wm2/2eYv7Qp6zghpeN5HLCk3dF8l0S8R7IsW9CrZ7d7RtAGc8XNKjlHByX/pWxNbG9SxTPANfD+gK5T2k2DAaGxSXKKNbBoavNioXhv9nd/Yj22K3WI6rdjs2P4IwO8EApiw8LYj++o9sPqYawVF15QRPJYDGsiFUmrJBFtyHXqxCR5L4XCK00yhx3OTlTxPQUTAxLwEWO/dvxS/JwVFz1CJtluc9NRTZ+qbg86SdIBR71JYK92Ls1Rc0Zj65Z5Jv22ZKdz1AzTc9AiXfBbTXc9OrzTcxixlmkTYxG0gHa7nGAg0NmFiZjvy10vN5BcUAZ629R49L08n5Ig5PpJm/pMvIIpy0v2lAjypSaK/b9HrWw9vViGgJpQnbBsrvRKcJ3aPHBatUXg1U0UufoRGIw5RJxtQG7/pT0Oiuex3z3P0s1PqNVd3tf+C4nDUcqpW1BAYWFj3rKzqnYgTyaRE/4eGm9fgX/eEZi+Pz4IY2yEOrIF/9HmOiyXB+fdBfuMzPFbYhRlafoo80L4BfXddLkZsPTnxD5W9zAbIRPri/MCMNX5NhnxuOWvp1xvPQTossq+hGNK0orGQHfg9rx2KMg3liQaW4+QSQHmGB+oZ+EcV4JS0uBAhsUkh4un03bE6AVpxf7uoPx/grxahDi8zcXS6wSWpvrNRshi373glIxF9ykBF4fvyuxwRbJM2R+JduyRkv4S8+8TmiGF2dOVmi+sMAm56BboRWXRPBe9lqKUyRqMetVgBVymhcUxOTUd92yCcWf7peVGOODiFd3w3s7ukDSM5e8URMcC8yT/U26l1WzNPFdQaVQGJqzGJ+rdvNv5z5EuIDyAmX/22vpcwEdQeq/qAh25u3N3UPRuI2J2CAoBm9NTE7sP7BkY/G6W5hJQ2HKNLi5PmDPU/p0Jr9YxFJkpVaeyt3JbmkCW3U3bUdxM8mAeZ018ufylOXKq9y+FJsIYpbcr6o4LCfo3OkC6+Ekbdkk9NU1I9dGz4WWnhtsHEnJ1f0mYZf0LsDvWRV4qDv+N3y275Y3a7oqB2RDl5y7FOV4UPf/Sq2QhaphuwV2+kpPtJtvOd4Bu2/PlheucTw9bsKMq5IB4WpLN3dG6eDcsUBfNbYRia3OtshZAHetDGM/V1VUKw+rLylDSxuX9+DWeWfVZgrKBgwrUYpWK08u/8+KZjjsrB9590lS20dKy/gbRnmMWYpTlc8fcxCMpiQMSvwp5Pm1sccMc48Z9WBFO4Zol9YUeTRgHnkWyx/f2g6QxABqglXU+2XaTtT8epacM2+cH1ERKrHfC3Tar3NxasD5i+T3VG+p8i+feruRuC783Qm5ylNPVL/iWwUEXSZPR6G4UFIhkZoSe/qzx6qGBUoGH2k7qLQJiTfD64U4oe19In2KiHQ50E8y92HE7/d/b7+QvuvEKqElNWcEo1H7iW3gsmf7hSROaomSGCRNfa0Czf0iDQNYVVUt+RwTTidM6UpTlTs3Ls2pMbuIuCagWrM1HO3Y0GO7cPMskeqWSXasq6x1qglfQGoSOzuIer0Os0ibEbdnc9wiyL0hiycbpg9lKv9+GGicx8RfWtPJN2RU+U0TFH5s/yXR6Y7HsM4LzfzDZvTt/RJwUeNew4XLKFXIXHnDc4QIF0SacGGrEB3c4KQvueFZyCrNKbevCGvq5t8bEWSe6NjIYi6MdNPFE9QSnkrj/1sn/Ugfa6YnairNa2eYpioO/X7E2/ZzGD/0XB86g+h+HPDDbzPe5y6F8fyOtTNM5sNmeVkOaGWiraGcWySuccWuQP+3hwJqpyRn5Y62wL6LpEGyAYINa76kNRQnn5wwITgqhhyIMAEH0/0TPDw9/1+0pW9bB6s4artf7asr/2MK7ubHiK0NBC0jSUdl6e/R3QeoRnU6UcM75T8t3i/sc4J8kcqJc1PYCSI6ZHOBZDGJ2fIqfnfWyw4l8XssHlS2nCcaGJtw5hs/XNfkKkajQCcmAlNn+k7BkdDiggkhoVqZHk+5Mqa2lrWNi19plvtCxROa7VURaySq7Ty25q+OhAxvC5yNy6Kt+3ArvoaVpwezqzIVujJs0+GRX4m230DTQuLbOo7Er7w6bXGT8T4Tm/pNhlVFTpIq8Bm+or9r4Kws1nkyG7tvh/UnufkIWNkuYfb4KatTLvKyqEhddcs6aYNYUMA+3s6xbZrFdbYBi0+ZXXOzD9JZi7sQJ6W9e2bG+cyHgskA76tEWdSj4CtV2sq6qV3kHu2ifNuwsfgk4eJ78jUSdMJCOs+9t75oGzj+XRN8+/+KKyepmDGPkblw2gxlOnUsrFtJmgBKPhnxG7n94ZHkX4RgREM9nZhlwRa1sDgrP9Ohi1sbCMOGXBRoRfTCRm21CaHNTpmcXACKig2chIqFqt9XD7dQFxsEEW2jSc/7TNDztggiDjwZIEEcp8Cnwg4YUtKkbNHHHmNOfZUO11gzaFcAiPQ0O4qRwrTCH1feDzIjh7ypB1wqEd64Zxw4N91nLrHmXCHlOzzMR/9VCPu7EVGSDz9mlEuIBh4JJVACQ/+1SHrvOhbsX1Mnf/kxeML5VkI6q0yIK70+iPN3tY4hOPg7PBq1OtaZAwRUnwPSgHRR4DAjS2ayXCwqgYV0w5YpmRw/jWpciH7cC4FMHi3SHgyM/4kRAW+AIy4DnEqGZnu+sok/UxO+nxX0EXMfi6hhCcgMi6qhNvql4HF5gIyvO6khsqC1iIclw0myQ0Y1NiPTDBvWxLffUGdvvNxJg++PcPyoPdmaEi/MPi1aJv7+Fxs9Yib4eOH3oF0PrAgbvx1f9DyFOZu+VEKogh34dhX2YsblXrDSkrwtD3CCYn6ZYRR+7XYo1/FuPebrDXr9oSh54z/8VpsC30p1id9CFUlnJTgaJ9VhPN7QSBxx3GhgNPDNpOT7x3gMC3kClUxYBdc3pKzpTSJv55XqA/PAdtGq3JE1JxhERk4fncDfSScLKlT/px/cBmAi/3i44jKDpB+Euc38eeik04STkAK3gBR5L3P90+kMTID8k3OOfSzWe/RA2IW008CCG04bqgqzeBiSgldTpixOGd5WQ82TNZiLO4oq567oUp111HZC9nDI7Ei5wQ3i7rPf5cy5/0QD+3BqUz5rcs6xzixTrawFWgTzbYATF+FY5QbfQm5GNYLxrQqkhm/eNBPzr7cxSU2fpf3CegDHTv+ouEsp1SgYKIOxfpxmo/JFNHTwXT4gNWo58qr6k9Hs8VQavGMlxQlbV8jkZDqBp4mqT325pck6SACbPi5E47aiQb/bZhrBGTFj4nTY2FtjHOmvLOZtdtZAH/b5NUvft9i5GFST2d39dakYmlMLMZbUeNIf1jZMg1e4rfZoowCT7CTGynUaG1g6I6P+yOaeJ6CgXkSNJe5ppvfOZsIP7eUQpyK5+iQiafFglccbuEaei8HiHsNRyKNVI1LoH9vkcFhDI5cdRIcVfzbukMh1nLBI9aXZt9jbDwBmexg+tK/l/snk2kXOQlz/A1Gfjdu3NCwFulBuYMkNAW4LVHU6xysVSqxNOS2K4l+82yGA8tn1/UPjeIdJ4CXJhwa0tRb7HGYUPAdwn2BduGxk6K7reEGrMBSJOYGgYY9i19DmaW31ZAvdoYBnvoFNFRIwoh8m40aG11lET25ed7oeJUhnQJMe0nHwCfz0ljQvvR6Ee2X0cYhqTY954dMPHF7fA1mkgELCfmtPn7+odS/FsHly1MWv7HLrduBHcfLPr/r2Madq/dnUw62aqdRgmGN6tpXLIFout4T2zVtitV0L4wcOhpI3sbKyIygaNLl/RwuoPLOrW0BeRoKjn1+/HLufWBMmlcUW9/2sqaAPehHCCZXhlZQbr7Ig6Td8INnISKeYDi/GKxz49xQuf+SFygezL/5osl0bavrQ1Z2dgp7QO1sROGWWDJpl/PrWtVO167wQmE8rgQICOZZlqxX5aG5cM+g22OxI2u31cQI0wcrLZrKa9snO/CEEZi34eWxbMJKQ9qxFvhiz3CNBgF2YWeT7kdtxUY+6dq3h/rLGNRCdNxc/e5KiVNg88hV++PYhuHz8teIpIotPmuaQenEwqAnaLYbe9zRHdPsTr4Te9zxNirtGhxoQqvz7jMRMwlj7QdTEXYa9gdR38P/jSuDQreMquWdKilcr+9hvdQP0nIqWuTJ6/2Rs1pvt0dCISZHIq0eVo+w8tv/cA5ua/Ow2lBObAe59WNu6ardwzkx/MJF0aSIS+Q0Cnu/zuEQjaXehi43OXlsph+XGfwSc+skpZBhe35P+73u/spLh42Vf5tLLy8mXMN0j3GYUFrhMB9VVMcqtjxXQFtqufoIfxQ3O81me2mk6L1qoq5ws1tKG03AT49+xi11AHwEALy9CIggI8oW8oli700Eo4ZCtJ7Ec0En2zCindWS6UUdEN8bcu/jlxENsYe9SROMdrhmOTEvj/fhQEM4k/gp5KdEj7gFzfKmmrpwsJxGOeFVIYv1V9Kw3XCIBE7pjkL25oy+O/AmvHXqrHOw+ZTc2iXD5ORstYQWBpOnHdAMtYySrS2dgJL/8Ag2eju1Q5ER0YaBF+lMy46N8N4V+8e9S3kZh/U6UuXPZi9RpMiQM8TFRb/f1cAOcusuMq9U6EDABwYTEOu1yZOVvj0T4wfVvB86JtRfvYh8fx/IrDamdf0BM1BAH6MatEFVxrc2DGZwryE5HaKpKuYG/7+E/wXD2BsMsOtMZVJm9AIW5hx5BCw2ej7dUwcS0oblvxmHYezzGTkIHLpTOAbSyrirm69H3l/b+H3qoe/UgHwbvAnZIub1t/OnKB1GQ6/PIvzFmek8/qljahqfamVc4EHFt+3fm/laqqEUUmLElSC14NgzMM885S4K0txOE1Grn/avoijS5yliZQtfrqgjzVq9ZJkdkod2TaWuBHewyTkQzsF2SeaUArAPa2Vd78knO/P7QWeuhMJw32dq/XGBX4AtuP62p4rY+nGNM3BE3CNRfo6N+PSOD8b/B1+Xn/VkU6lcK+rD7weJ5BMpP2kFiOf/vNDuQHhCBKLaBA1Xj9KOZrEfubbBfR5QEfwnzT+hcm+/or1bs4d69BZBxfZ4ImWqx5uAWYJhAOhpVzzf/uYSHWyryFUhYhOYXG8KRhp/qa+8s9w6umce2mtgtGy1zaiL5GZwIwvvojZowU5efHkE+/LGYmQDjqsEV/GB5fTOOZBPXV8vWeN9p/T+edp8YCVrHu5uFe6y84I6PgFwhH4s62TlRM4e/kG/SkDN4q0xV4BAcBPqtmaYHNgSLDgFDqERgiiuQKs/Q2oNDcO5GJcr96w8YOHJ8gy/FLNwm8UXDEhUsF/TAKFnc6RNL/ELJGT00dnvnnDf9Hvifq/GYAW7HcSpzJ7NbXGL5DvfxLeWnzMwA1dFhN+Y1GZKqgtsCi4wGzNKeVUjGAFLa0qt4wW5VDosK6zvDFaQkQn4Q7etDTelCSS3DaGF27IVJHrNhTUkZEXKpLT8VF/FRdKIkWuEev5g4/Zb3Ju0QxZ8JrtpgSxX9AMPfTF3eVTptWnJbmIdkbwtfWyZnPiWN29Ffu8z4kWbwCK3yr4EupKbn/jAgQJpppzPiUpaya8JI/uurG+ZcMd26bplpNGxw7daP8Bz7I+7BROVd8DKBWZh9j/hnzNAUw0AR0f+Hvd7NbWTk8/SDZVIEmmTl7j1nE761pMHhEO9c5CNGG1wgt8eVXOhW1PB4DOv4MH3mbDgWsUywbFV4MNjMI6+Xv/A58QkCcBnRvC+Z9KG8zYfSbkC9UgTP5pXrFRyIx7FnnVKIb+8Zme0MMIYfFhOllCqg6Mfvrv166mt/jqIR6XMvr0qySzwOFgPkvV6AcdtoTMIpYR4FBDrlTB0lTRO1UY3wlQG5IEEP6jpY/r9C7Uq7Ira8zmtKVIqfmUlAql9aYBE8UqqRUzDc2aDYXImmfOqV0IheTnHZT4oFA8m2j62wZ3E3cGkHJQeFyUwusfO9vu9DcZM66mxkMdav5PwDiZz3/GM18iCsjbujtzKazBeK7kGhiRu3XFRZGJoiG3cMITkh1O3f7TKU8yRIlZcA89v5JjqDnNDA/r/3CNjqAOZ/7TzttZ27kCJ2nABrb53U18HLtSj+FiZuvpRJnsJl2k6mQF7lYTEcmNy92V1MS2uQV6F8Gz9d6KJ8uhFsGecRAeuMU72doxUbuLQnKyaRwK7mIStbanmpdnXvQEWhpbgthJOEQlzoPbCZB1TuziVwWu7UCWZOuJvStVLh36ZEJUdWG/0gcrJdaDc4Li1YrS7dzY6qXRIargDBKgiCm3n6Jhr/w3Nup7o2jCaU7Oflva8pPFT8d+Pmsw9CBLX90v52BUMfotiHFxy6eCfyKtnzDomIcgpNC9XGIHbZ2W5+9tWeIdkJD3NqMELX7WT7/HqL4Qd2wWZWSCcsWh3KdSPlMhbvDo9q3AMEmrE9ZBmebOw9D1tAbfFvKbkzR+Gxjf9gGYq5gmamwptj14AR50Ryw9NuTVCRB377CvhBaYSPS6SZtPQ9MUzK5x46kWDxUF3aIh7Lr03aoUeqbAUuGApA2zNhGGSRtXQDRJiAa4JMdq6e6/vdkPJuVNUQJFHPOCVonqsx6Se3F7Tw37v1ZJS/CtQXlwDf3VLkwlg6ukbi78QTMNqzEX+cTrzWmV473SfRd5CpVja6dQQ8HGe7KAJhe8Ly7ZhB6LoJHvTp0pHlKVAANQ5V+A1QlewuzhmKTbKna3IneTzu79FMFCNNdX3JmO9Dz9lsbpQPjS9Of4i/ZfOOkSQ7zVuGGJJDBNfY2cux1kzbq6WIgIFWgAVZSuHA1ywhp4z/3HjnI/HEWJS9axqL8mSqrSC3c4kmdwXta0AggGwKySLeKtyHD9lJKp1f4TEZqmvrR1I/BQIKziRZ3IDUjuSfKEK9U3mYzywZHf4dkhDTWRyehkHukBreAwZsqt5Jx1IGuW5+pr885QCo+PmoKo+hrqEJX6YzxNfMXudvWYeyQYe8byWUQ9t+uZUkMgSiE2//Zn12L93yMUID2zzryG+FaQGlAp2HzfWPo5eIK9nU0z0MalDU67q2/zEHHOvqa+6nsULqIIYvMuGyYkzU4qIvm0pYbNZT2GfeDu8XRI5I37EPCHBE/nYzn7aJ3dIhCOMPjQWEyBfdLmWab3wrHW+trDD6VvIHFhMHOXiSBzMPP6UVueGwNsjtkE5QpLMNvTx4CxLRvQoJjbLGX53hbvnlCGqOyZ7d4kZKdd3DLP9+yrp5LSnEDMDcxfKLGaH6dtzjwdHbLVhDsnuRPHeyXNJUxNbWgHl7txJF42ds4drTcb55rJEBoweu4ryNXY0VNiaJVmzJGHw0TEZfaIE9PhxhYMkUMrBliGCEXZDsSVy7msM3alIeUueYwVw7ya24u+LmsM6S4yeiSiLFSY+w6azc/MmsuMiPuqXucTEQLe8sOLOYvoI1QrgPrPs/PynV7ftb/g8hiukH7RCJNkFWylw5jsAs1V/7vdPRahzY4rU7ajUdZXfBkD4WVGOMFMQFUuuAmXhwsFH9SeaP/z6/8//LVxKTGCXRnjmwbYqEENqkwIsFqbH+4fQjkYSWoGSW2901/QV8VCj9qWwA6mgN4u3jv2tEwSka9eJ6N8ibfGpt1YIJL1wDAGEo0SXmpE6MUEFgrmoztOCJJsJoVoivFR4+1Aw1NRNitWdjvkc8u+1EEcmAH8+Vs9EZ0v/e3X04Gy6IfPl8W3M68BuFe4bgNRfAxrAQo65TbxHT4kiCo1Gz902psHNYDitsJURtQHIdjHUyw1ou2KujcfDw10jlHiDUTUAtxOpaXYcpI2JXQDnD0Bss5pbPX5bGGZ5IWkFSiqto3b2VyLLmP0acNhpKOtlJya3x1VduItw0izRHbh0S5lSigrgd/73ukqf4p6llvVWksEFxXZHXhGUUn9VuzUZzebFOuBLSVC+hmUg3XHwmjcWoiKKnpkGCquf04IVQkPgYG2U20kyFyQ2mncEB3ZT+2kJt8Fe8hWLR1/UekCvWd9/82jUnFt5C/RiTb97YJi+6NVBkucVJJxjOuAkt4Agf2xg4fq6HG5s6A4PwrLat3bhjQ7lwQsthllpESeN1gjICWUXpY7E/123p6MDi6wgUtPGmaJzUC94YdEORMITg6aWcX1nb9sKHrCV4UJCqWk5z+TD4F9tD3ibRNcquS0sHgmEh8hHrutlxoeSm3D4N9qutPp0xoN99S+7AbHMP81Dq+fpGqojoLXIPVVST0uQWuY554h2Bp4bB2xKup1vmPm4sSwNrPuM5jmQTHGpuDX4rZrBfGaRr8/POOKoHrgiDZ+Q9aREu92hndw5rKXUYIaaCnfvSmVkWkJm8r/GDKZtLboBdCKlxLEe4cvy/t/zNWTiMAmPyI/t8GeE9rRCMZZSovgyNn6gL7VywBuG4J4+22ph8nRjF1tZSHi3ohE1uvfJf+GV2hDJflCHFw2Ng3zYF0eAmroXK8GPCRWDrfutJ7cQBqUZC5ZM4MQ+VVselYDyhvF0rFWjosjjRZDwYcaj/Aqi9aYtYJ8Rib4oBSOPD9/mdH8nNjnhws/YMzcuWlChn/L8ZgyPQ97z88L2UnbQEhm5PN4CPRhNVeGu36WkvNosdbXSGKgZobc2fF9vP5dDmfGMLMlPQbScBc8S/H0drtJRjNMb/z3cXI24ezn3SdoUoF3eN0qxH2IkE4jGAO8MsKQBrSHfApdStQB6TeVCIqqpRa8j56R2XZTMgY6u8QgmTSVuKiU7PX+mxss1Dys28WVC1RO0EA7r85Gq9FGP8Pv52kzYz7bjureGrhb+MugFSdJ4nWKiGd9eUfDabXtr8RjppqUhn4uaj1z28FH0WpcVQKnQnbxBRkUSyRyC/5SjEynOP0bp0USYwbjWDtvDTh8882wMVv9/4dcyyDw6B8SjdcGmWawDjrwczgibedtPj9snLkXwkQWMg8Q3W1LB0c3ph2BpmWF5VVy4YEfbs8YVPyDdJUOe3MT5r6gkeS9fymaB7dGRkfoR1XENIcMT5TYv8Cm8DgUPXeh0k52XE0W40148nVLL68O37MFez+4JduPcafyifTVzK9Pwxr8lGPVHI7oaGM0RmBJ2UblM9A6lS3PIqgo1Mt83ptmerCR7VxeGi4R1aHbW7tZgsMixEjFjxIcJy7IzDm6NiJDKUuhUFI4A57iKKmzhZ76lV78BJJRFqhurqUxou8iua9rM+MSJETk7T/2+3LnNyJ+quCxN13pqOhx7ODny8XbHXukh3E9WEK7PchXXD+DlqQCyiWiFQSjOhkx1UvP/WKVYYCJOMZ3gI5W4QQi8k3wPJe9DN/wPqkSUPIbGBEbDwQmzMm49i9el3ci8h30K1VnOvpYwFDRSt0bPgyVlRqRO3oMivAhIqFquj2Fivr/AoTxpAy9Gyr+l7/DG3Bv1W4BMyMC5T+vdkpssyWM1aW8fxp/S0Fb/5pn3i/kOib6OmT1WGEdYe5dF7ASyQWdrB6Mc7g96p6Ml5khD2rr1EHvWnRoZ3shif1spzP5B3fBeTjpQl0HU1yKgbf7+Oc1rSHBkMSyVpUSbhSoITPjfVEmcVqo0cuKOknZLdLq/sM1YSkxHvchBQX3QmURN4Mee/Yf/OXA+Pg0lahEpwQm+kiGOssbh7OfSe/8tdJoemKH2vNfLv0Kz9PSihlPbYArMBJ32k15YGHMOglKwFoZaCPeEsSwvasYvnOOdpfoX1ABY6wZaLG3WusGdd0ENvuYyIP5i7Eus7IrFhPPZekT6Ml2YtMM2EyD+dH8EhUz2PbF2JWSDKHH/H2dNeBmTKhFwfHMyzZ7/VUQc/oFvqnnrJhMU+18RBxD2YjhARkp9lEwiMBZ5fOBrZUSS6hVnGVXTGs39Fba/9mISy+Kj+JVWOEddATo54PhUgd9nYCDszSaj6P5GitBec++T9bOWujjqqjQ4sYUh4NJjFVaxS495oSIhgklniKtkV/lvQpBIh0gqSxeaf1OpY9R0gBVxznBaAS7MjwH3RWYhfUgyDR7ahUFsHZzVwrw6DLtthh2OLOGTSiLICP9TdeoFSOwSHGiap/S51GRs6kiAt49bJRfio54wRl2Xx2aptD1geu2RuUJ5BhEFzIpqSL1R++IwtPTDM62QT/8bHzFZlHDB6pDM66dHOhhTrT2qmILRQvno+VA2XulVnd9YS8Oe1Epvue9T/FVd8HcsQXWXqUbZKwYesUwKYSqHXfXCfaEy0Z/YCamFyr2He8uw5T3iQzhTuPrZjiZogueHrnYpg6nJ//DVpCXNbHILp1VzKsj/2ggdPR5RaJNyn4pj+pacv4VQBkPnoA0wWjEMj5r/z1HHAK+5bw9ztCPJXi+8oNvt85GEoLvN6sMo71qX+73al6PG9xr7g2iMghkcmkVk6Rw3nQjVAY3fiL4omWGHfvEmEttArPEZftP7Fi98yDYIadAKK1lZrvhwkHnJupxyTA19n9DPEqjY/vXGH5KRMOJmzMMX+WQpYkpWkET5h3dAtN/sWL4ssFa9kx+ooITSlMMUHt5uYbP5VDD42fTOK01AM90i05KOQXdO8V6QB/kVoZvonD43SQht3uAsuJ9X/rEzrMvqrcwG9sVf2Q6z8s1AHbYtG3w45cp7sJUw/Sir1oVZ7FqvCY4ocUG/lwbPSVGzBAFu4vA0QKxHl9O/q1WSB1LPKBmzJoB0vWxCOJunxPB761HRZFc8uQKPSlFFe8puKdcw7IBBMZMotiGCgPdPmUC5hwL6SggKXuMZbnlmvYQFg1yUw7V9LIGG9ISZjQmkhWpVapKPSrudyfW5XW6ixSvhRSXoUvEF0Kc+ZnePODf0z7AZdAUzS0kZBuix1K9TXQ2tv26zJfPUunQ3cEnP3hOrwu02bG/V+xUSVBWtUz0mvJzZiXTP0qmduwseKQGNNa+pYGTV0ec0jtyU9OsY07FJRZWyCnYXGWI1/3rJXGZTr9aaN5Mb1FvPJDZmJ7lSCEUTGeHEaRGA7MG0ta29TSrFaVsoSwF1Pv5o71AIyx5VB+UXo/BmCEqTpGYMlp2EOEj+T86lGpIfMAngrBfbThlkTusuR19gkhqwDe+pY04HNb69OB0+twvK8QPmPZAMaf2W7unpRW9EAkNvsO4A+NP1bSh0QMm/BY+lYAo6lFc50Dk0w1AmCYgpC0jMaa9mLfqIBo8HtIfXuUe9BJEl/gwncbkxcnE92r4YZUCgIzGSFCvu1c0gRHrC3cqQoJhy04CBqHd6C/wKrCuAT03btBD8B2EhQiemHnHqnU8PTBNL3P0JUPsULjxufnWhnQ2UA9ua0TBllqIA1zeGuH3g470yLW0jl8agsGdQijDlApl+lQj7HRoT9OWXLFgaG6TpATIojdKp1yFy6ty9Ymqt8adi0vfh0HgTOD9fT2tjeMhrJpIY79zbN6653GfFm+RQCMFP0MtRr2PJAWNF8Z0cTpXStlYmjIh1TrHxS9np8fTOHC6IhuBNRVHsJhhwZYPmrKlP5PvxkqRIrbeOLnRbJjZVPr1F1pWBpdDBBHc8it0YX6xLJ7XgdvW95Qh8+BCDnabjDOoNV2hylojMSL4UG2p0AAypSNylcecP1mgf7FIZ/CBjKavJv5t1kIvUZ1xUNEA9V+hc+Gh8aC/2yAQap1mWxD8KvVASBa9Q5NnfM08LChhSNRZ51XsJ/Iee1jwOTwzeqc+QVHZ+G2pADb/YDd4Fx4acGDANDEGCiukMInxp4PYHUNfBpxdFaU0OtyLOJGEJxXX0+X22wXdkkal8firPJmNjSaXZfXOjOucQOi8bCzm1J0hum3uRMhVMJeZsFR6HoWFOOXyJzhdDaN+pNLLsm4k5yAF1e3RzXTuTAvKiyFNjQQkkTxPPBG1mbkPYbhXv4b6Exooa3sARsFc1m5xn/VB2yDwCfeXLapF6otpvhaQlwN6hPtoGypjxSZ97WHx1QXgvsuP0HFxrd3DMidSBXmMprrKkRzZtgmLTtlZiEJKAmuZ4R+B4LHgDDYurvCxYbPfnWYWDW0YHrOPclz2nfHHMfbN31D3/SACCDZQa0b+NVdrjw/2n8ypt6hqbzT6icy60LgFhW1U1AEqsDVN+J2X0Dv4SWQLtatgZZ43c87T2f/cTsxtkBi0zgRvreOYi18eBxg7YM3JPtkvHP2LIkKZq5gxMdMdIz8UCHzD3sn/3u1/Ev8dcBpbwJi3e9Qnat3WY8FzEsOPiCxwXib6z45JrqW7EE9UyczVhjO3oiUwYgtcUBQ1zpaAbNPYGqk2CJKdIpaT+Qj3DkM3whOVGnXoM78ff7Ubsbn9440u/wLqKpx5PT5dMTLNbF0GbIKM7b3u8ZMnREFZZbU5CGmDXK2tUnygjfOuGWzM7AvBSl30NmBKmyKpol9DsaIKlAG7NjdL/X3KTnrJapbEaAY/fQ/L1HXxK4x5M1+FCRcXSCG62JtEZVLooQkx/r9ylmj2rG3Ut0IUyGl32DHL0L7vsKx4at4KBn+IwFWC9NhZ80ygP+8OV4o7yhqwJeJXN4r6siiFNX3N+D/E3MOac2INd1eEznELD1Ph0i1cExfhQamFldTKnGQcwTQdM9PawVvcQCqemtWhF+gQxoAqt4FnxmEKxfoLNfPRlOewXHSYSN80jPREZTflm/++D4uods2OQNwZRnic7HkcTGg458s5HL+LFa06GpGHqhfTXDzUtx7VE8g9URNMWiLjG4WwfY3sIz8DUsX4aRfp0EZmOTyelAr318aWUm17EayJ4GPBrFqyAHhFb9a7kZd5dfQ7FrDnw5GgrpvyPKxooxZpoTFJISjz0VmzOqbCQMDalnkA2U23XHrSVcNXi9wj8uUYziVJlml+8pK0Pol5bruQolRlinWFXuFjfNzY0nn1WWLdFcUg4su/CpWci3fhY8lYMxaAYJNHSxZQse35b+kTMrNRVIJGy84eJCfKd0TeaUBv/yeqQA7FMrE2QIsA9SWs+msCaEaog1PKlhG54QNuBwhGm5bRSE0PrkyELZ50RCMVxBEyiXkxyOPp8ODdXJf5+94mqEdBmHMAxDnRtAp38+TCRLYSgEZeD6dxF6r01ymqIXeLyooREB4LxKXximeZyuvoL8FBc73bIAsScVhFItdLoKmoqkJVlfLAXkto3d/rVcGDFeivS3XII2W6mxcy2mItkkU1pZEDNizbCGonapI93mo5xAU5WpxR/xJGr+2t0zzzTKrdIIRXExPsedfu80JHIqa67awOiptkpf4fpFZi11ky7HtG8pCLBUjmGk9Wt086lsahmoLohyECn8VIzuHuVPHGPoZm9RLlKXv6KCybPF2AS7am6+Egl4dwIOqJ7xGkFSeHLlx2Pin/j4I3T9JlFaGfhB66GG0r7TaL3d1Q6ZgoWMuaj6n/Qw7VeKK+A/PYpkM8H08qjSZ4o85Y2EmNUqjipXbq+HwB/P2w2F16fPNwMiOCrpxCNsfrAQom7mIIDIzbj7k/PoGDHYLnf92R3HK4/EHQHfpsiknZc0mhV1w6P3Ye7N6gF9mDLir4ZAGUx6gcGfC4fauUKqDox++u/UlAQJxmGXjTuUm3e9JOFCU9vrCOE/Pw3klXg2chIp5fuWbvVYTanHykuSoz8fekqR5tORuFGUaj+IYhk+A/AEDw9JWcOfMce9kmP+vR1IqyQjRsDc1UXkldHaHDPQ1c8mtlBFeSFUEyB7GL1JrAyDRcFd2Tz9XcwJFJIO3LFa7RLEBjs2WnMQmBhJ88ffVR+nuWLErveq9T+YnDD6ityrFcl+NcQPokGdzWggAWIgbrHq5ViKOcuj2ZkKjDKcL6/gCZdCA2GyaUnG0M6NIvEWRijSHvL3kCJAML7M5E983GJ0OAcq3dJmhLbQq7K9FkOnAhoWjrlYoFvjyDg4R/wOFBgsuhPZcY8rB/Pa1PYtjj2apKbxQ9IKiJbl89Gdz+GsOwBQafRQNkhMmZGLskeT5h7Wi6Xu/ujbG8EmapeBSN6O08QJo1bSacjgPxPF1zs2kS6M9esGf6qdoL5cyIVH8GCtiQO1e1+ndaSbMt/L3ygh4R3aPG8iTnypbb6pJ8GE0Q1cFfGt9LXEZaScqnVGbfTqYvQLmUDzwKaodffWWIEToqOr6m6DH/F1zzd2P7WmXAA9xegilMHmQsfgFZUZODiqddILaKdtwr7KvEn9wOIA9k2Q58/HnH4JeudQXj+6FsAMoMb6yCDdoE+kujJJug7ljR4gu56gkYC32MlBM3r/RWtsXTDd0WeiA3gv1PzzzfLDEvJ/jez5PlrgvntBuGIeVByh4r+NAlEXSIIk+wbSSI/jFtl97c3OUpMIb6kok0+Ct8aRsu3Cm90ypxYHBwZRezn2py2vqaTnIeotZ0TMq4X1qnZEirAk0lUOQL2pT8rMAhYPzj+Uv3PaDqpAjI+seAAzQlO1FpjCplxkFh3D77oo09QSZnfSyx8/yRR0qfmkR6s05ilBq75suU034sC7iAfHhyBVO3eot001SmejCHh2UDqK0/nNdvmkxGVBh96K0UNVRjI76zsH1VaJ16QvVPhzZFDSrQr3Q2VU9fII4ogQHQXAHHZQ05fpgNXaD99FlCVPVdu6xKdetDoGxmUD6/rN7KMQS4keTVKmQgFSivV0REmYCyjEq8NQkg8+vlM3lt7lzEeoxIi0IuJOCAnOIFkOeFeXZ3kXDECaJVc9mAcNgh8YjvEoXiRYX0IfESKhu4sNUeGBid8fpRgYNl4Rgyer8BCEQ4xrV+ytjDQ+5sgT48ncFKQpATQN5r/KiQ0vW8AQ9Ld5rhzqobZnHgVkkhK0fTotoVcHeLERtg0LoyFpyS8wHDbQS7qK/kGctlahQG7w3Zbp9aw4cqxxKAgPniLumTczOVcysm+BT/naj9VDyuca7ElfADWjo466Yr0JkcySsAF9leGWSgwTXAogSp+9T2/AgrtD+wFXmzF1WKfHKiKT1zNZIBO3KWzjIwTmNduVwV59pTUu/M2NMJkukAp0oqaW50Yv4AJfrTnu4CjJGjMA39BMPRWavKyG1o0Q8lEQcysayNtvK93XKgm5PnPK/3tOsQAAL2x3IQ4S5zjnngidkCTVwo1FR09EWpE27n6zreHFCOlD7mbiyKlJUUpgPi2ozfKgXSouvTBVrJ0Mn1452kF+SqozSsNee+NfeSA90teSWzCBpXOHKo0YaawYgVGSQdXMGFPH4IN50GSqSP8GknCiYnPEh+kPAi4f631mxyoL0utrPR2pRq2i++CUf8UwgmY+I/8xTvwwbvBgMMbY2PnG+DeMAh4vHdM00oFYow1GMjzh+02Y1g5bLDgQRumWF9V691YkbLAwOJ5RpyMYKR/ek+Hgyuwc4wADpOLLeMqbKQMvWvZMlzRnTYMUwQYL/Xx4+t2jgMTjN1y9PC4JoZfTzEZRB56SPR2oeDGMGdStvsVG5uAu0OT9wmNCpI4lTwUP0RIKLWLDOoybdntWKz/17CohZCRKEgJAHF3hqeAhx9hXO84AT1mRqhLbsJPi4h+DlqhLZ+lA3NoIcIqPqBOABcWRRswz5F9qzGIQGnsuAE/ThZYRItNoHv9QeqdlYk6khs2m5+LmOCfyOG6L2cMt7S7949/BxJ0i4Zogk/5lThigGuV2p8wBE/Iuw6bEY0nmIb9KXxkcvjIf7/pRSRDvv6Hgk327++R2dQ7e6YFcYmSsSsPkOwgrsbnZFCxbgQWIx06JSh7HuCbcQVTI0hUspGA/9+m3n2zGt9IJ6MWJbzifKq0w/rGvn0C7FSTs5QVmTtd5gsn33Pt1bdnoOxLHU5COVJgKuCkZlUYOMTEz3TvLw+XdDlq5aNYN7TJjF4Pt5D+rHIOpFcrexjmzLp3EaWVcLWq7hFajT0lE3dbLvv1+W7T2iCsVLb9v36xAvloI+R0LWNJzs4djyG+4ahj7tVCXSHPoSySKrFKCl6VleplKzP32/jG6ItvShvzJctf8Ht0pvpoljFt8WH3AfIRpNP2oXiEWgFx9F1WItErVBIdBAHjKiNVdjkyExQ7Mlov6GmUTKYtkXFZaoVmklI1djFJ/QsjR91G7z+nZiZUE9jLSliZ17sk5ybDqVFM3zMLbldtkCrbH3GbcafKwx4pgvrv9fCR+HX61CO00c8EVdTHpCtYbDSBod7fE0XwszVbDO4rY1/m79UCEVgmfAnT/O+/lCZptQutgGXPK4Da0UrJCaagH1Sp1B+z/Z1SzgdHNB1HFes3nw/2chmRXAJ/5bBmEZz6UfshH+xXGURFZALgFNg+cfnq8q+47ToHZZllTzvLh/csKyZV67QlI8RTsZHK25yRWVV6J8Eo8ulOJ9UAIU5CIyK2q/GNSb8V2iGGzD7lSqrtadJ217BR2EhhuWpVHSco7EgGeM74d1AeNQ2IEtC4diEva1fQ7GtMEBuqjCFneHi54qp6OYPW3oiB9yhGNUF8JiizdQqrnnKVVK/5mltrRS5quPj7LRJTAoQt78rfJp+muqSpRQSXViV9Y7F6s3GYgq3i1JzItvpScDKjc1J8ulcHUDhJ2q1ku4iJJ5IyyRje3dR0m5Xj0UFxXsc6yjrLIbXO3ZG2prbYWX7kCY0KA8Q9SpCum1o3my1LJvCwzyShowg0ZSV0/a1nOs/p7M4wOUKFnHwckkE7hWca59fO3tMYSEkFaeKersYPmXHOJ/5VcFyAP117mol1kYJpZKTvGDZZvaV6UQnaJfx9IHOwiNSAb66pe9WA528N4BNqr9F1PmGcEQofDztRYNvuuUMQnfj/MombjMgDjjbi4voyEY77+jn7vsP/VXmBPmlC7I88/GvEtMhEu4Tc3JaKWbbyTQXYW6Me4eK3z6lBzV/JWj0X/IxDWVp32vbhgaztfGxJgkgekfBGYaXZI7njh9ATwSjv92zTSbRPoh015PfjSd/gqQXhBrnHQJHclOEGzN+HSPkIqjqu6/HNRejdK/TgJx/kl/uo/M1napjIKWqmSL4n+KfTxdv+485R0Z7msjsYG6Y5gzY3hcYI5yVNrN6bLYfZQf4GoWTaeM+qI6r3H8BxApKgTMSySDUMTVZJYh+r+Y1fTKj5eyy/AivbMAudXZHCOpKUx4GZTioX5PE7CEICIu90Onupqd/5BEPDMnOpTHzIATB9vtQ8nYEP1e2eSFG/3UioF30hTC6/3J9pckMH4xRnHJ3afchIzr3jWYvw95R+THddR4uq4vPYGo78fgQPJnP0I8CGqSKLY55B6nPka82ukD7trn8AO3Qk5Cv4A916aI21RJQXDmwEmwR+0Cf5HXCL8fVCSr892tKd2WOSYfyFHvI53ZUqO9lJWx/HeOi8vZDnmbswXetkox6JneA/z2SDS8MWj4F09g7h+rKMTd3u/zANQN9hbVUtbtGU6Vb0h1/ZpujaqgAgDYihDK9MBN6q7ii6dp25u6ImqUUPecAelJU2Pf3E34l7YKvCZNcqobBa/tME20GIIwZO0xEahsaprdDbULm7Rg5DHcJ5G9OEuNWB2cDOoOQTgm/ZvaBSkY+RgK8fPIWaGVePBc77VXOcH4v71o0X70FkMpcfAl9vl8p/HzWy4dknjNa529ogZ6ynKw1kQhb4LPlws0nnrBQhGU1fgPpCuapXA4JZcnhoPseB4bet3wFFemv0q5Hmj6+fEJb7k52p0QMft8+O3tKAnxF4DMHnLDyBP5RrHzHf7XL+E7/38X/Q0zokoPYgaNc197KgRAjcCDQMAi8f2v8kBun5uaiCn1pBDtS920nTzkpMFuCQMFAoJLkOWScSJOBkMJ9lv6jplKf5jKMZaq3reLfsJUYIZRuQ/MIjnjFYbEy+S99HkOX+ZyC5mfF3bOP8fF49tpHwBgmEtvlNVwJHBIRvA//bQJLndYrYC6E+ZWpzQ/beU3W0+vwFdrAMBAqeFMhvXIval+yYktRKAR/Dw1TrXgr6ZeWxgK3q0hUww6Cb9QMSXqFTfQRhezM5AnoaRcAdK6mDcPISAiP3RR2nAzT5KF/jFwP8o687/WycePlzO81R36kv7RIXp8TxLbQzD55emkTPC+eBTBKwRkXA5lSouqIWBMGFxcdYN+iDJwgpr/PNhbaS5MXf3uqGaVa61CfUbbOeodtuVMwcMUzAGa0G1Ya9dEFPip8h1b//973ewwBaY94LrBpAvYDXBsjm6+oBbRLBHtn0oitc6FA2RZXOWCbInwF7g9uItgJWG79dWc38kSc+ph0UlUCD8+GN3WW5k2qZSzM8bw2kD2uUCjqqVDLAc7gh/F1f1+Xh8WPp9i4+PSW8J4nGjeu8qcbdsz8WOEQSlrnGVFtFZl3icN1oeeB57nIrmjYGENNTzyQS4uqWY51/dkYQ6WsJLpTsxzHYcB1s4634Id492UtYVCRS9f/44U4tosom6o1XzjHbO3nV4FPYS/LzDQcwrcqZvVOpxSwMLKqtmvWe5Nv1ZAJJFtmcNQwkxo5C2WGxOq4JsO9D013Vor+tIhsOnnXYTOijaiIC0wl1HLopQeLTU40FVz93IZmgGcsuWKloXVyhoTUZhnuMQ+KTQeKe2EGpEmZ2yEimHUP5ikYTJA6JGJ8fhzTpbOZUqpIMv5DtgtaPdzmFVhF8NAp7f4o0f5U6Y4ivQJdtX0P1pigdOHXcfEROj2dVcNQ974DvvLDpVlh7xUgEi37jgYniYaYNdRBEZGAl8pZaK869XF02vexTR2tIomLwonDGfMckEroj6gG5H3poUrErO8Rk25AW41m8nVHZB5qykivFp3uAjpfgJZdJDr9uLbHQz2lQPJxeNJ2wNYIvu0qevVCl+WCsUBvqRU3tZffSWx/GxhaBejkN833zX/7VqPnAC48+TNYXHp5t2zY4NgqrAZxssF/WF/DFULtGCq3y5bAkdK17XvI3B8AL8GFkiUqmCbMX1bY1mDXkcVnYCLUY369HUGtOAXm+BcUY3ZrZlBTucqO1wnJC+BVAimDyRuBi+5G/XjXgC0K6QMRLxin+qge4uz5yqeNa/+m5sZID3IXpaaUWF3ZmaNwDJiheL27yzu83DhxWb3mjAOE2VnhSBGP/4Tu0MXJg3NysvJ8Bisl+GTXPz83Q8vzf8VX1PBHKFtZ5a0AkTAxDrI5DuqrBIMA4Fg0wc48tdpqbVjwBdiEHjcfusgomDImVM41bpK2mmSNVsBTGrfYD1Oxf5yGnBxlQAdvYaDFnz2szVYwLJz0yRkWtOgo0M9VAq30aE1VDM4oTWOHpA2KqYpdBIQrBR2Nrn4neSyGRS2fcSuWvQ52DXlhCfQLbN4wWFsb39QSNYl+QnaAWN5mVRREB8KGzV9XNnnyethWpIlB3y3K4HSje9U6hn8WC/1ggawdieEoFYbfl4Y7yzpI24CNBMzW7eeMrRXn5GKf/3SDIlEwYfMNphSo/uiQAd5lMoUTp3SngsvdDYDNwS5mCkwSVxruAVEzD2wwwmd11xg6OvRqaynsK/LjpH5VlvnP3aQNEvIzuchAwXo5CQLKNGDPTHDthLc5WAqtOv0R0HqQcKJGgRsa4CjRcKlbJAPVr7VUGGwZ6j9MGrTl9/17+gLJFE6vVZBW4HYoO240ouVAIvyQaxasrN1V3t1bwDq3XRVjc+pkuz8FhZid8nFpjhTgQhjFvYAywt+tLY1JW+oXPjX4AeCcenl/oiPUqSWsKgt164HadBePO2wsW+DE34KWvwkm18joW41Ixx0PrTo+/fMHN6Xm+ZAg2o9doUq6qCD7aEyQr2GvFclzrdXPOVCMQ7jX/8tacGRX91xAhbmsbSd1qN+OVHfHbo7UoaCjwWsB8QBIk5sRdz46CM59J69ILDKWNPtgdk50AlpL8OEvrvBcX3OcRQXRpnuoCDGfXrBuBVNAfuDx+1HQH+8UokDgR3jNoZaM+kKQFDa8jYTEOvTaf4cqOpuHVYRQfBx8OjiNLMy0v3+0No4lBt2FNflY8IKcDpsbayJyOd/NZi8cocDqeuQ6KYVxdEtS3zlVc+SbcHJvAz/55um6I9qNf1GDZjl3tLq/XOGhAIjnCZzg7bf3sUmW+g1VL6UbgWmrgFFMcxphCVvxRUYTqq8zTG23DWFpnLwI60n67+e4v84qfA5dQMlmZEBcPXFAf0C7WsSbr1mxazkXL5vVKNMT+0D+SwBgXZut4ws+DJWVGnh9Wje/UzMhPdPHJIEGsdX0PiWZPnmR7CpVIGDp4FcDulZ1S+AO3O2jMsLiWEES+f8ddb5DOPEA+TZOM9SqALWlh/32nDyeYjJWOWWrNxWKkVVt5FOzr+libIpAbmfO4siR14DBGCxrCAyLMPJBs9LNYW6t5Ek/imRFwSfPqD72cadPrQrP4FqRBb691Jlt/MC4Qsd+pJ2B5Y0mlws2OHBo6/oxw4/B9lMzjRfGdHE6V0zr5afeM4vEIMUZZ9KLmsvvTNDXnl6YDeAyNBw/TuYESbtS8etDJhCIjZn9Kks/osteh+DYgUO/nzG4CEJuaYtycGU7k4V3TsVmduHsYDEiHkWGY7SKl5UF+f0x3ng9kDp8xxqqKnI06sJzINnISKczWH0Vn7vOD1sMqyOVhvIlAvelK6Ti99Pg5hp6iMQDXO3ZHMZYPjhUW6LU0wwR3ch+5qu72FyqklX4HslTutYlCfudPDsDEXImCXEWtVrX54b/I/rE1ezTvvanjWSFpbg9d+DmcCbOn8WWOP0tzxoXuIjRu14VM0oq2irEsFsgxOsHTmPRPfBQhD6miKlhfMNYvco9VBlwDUn0dXl9c12MM0Dp+tFZrwUMVpKaPsVcFUDHIV2UcjLjdbs4G3Y2wPVOza5YBuWfyLcuyf4fGGUGIH8a78B1wbWslb1IZqqk5s4w3Jf96Vn3/MaHK+AAI76ksQwAGDHNwLVJtByu3we7VGzayDmqLEx7k+HdyWdrZaL6CQ1BZReZ7KSMUc5WWmWjNKKvVOcrLuI/yCsxFUZHffRv2lLlCSKzI7uc74BY2N4boM2eWqyPbtgvP7gbbot5h9PjoDS3J5JskxzPsHYFrJL1fyTG7qaj1ufDk4YAHTzQRH82VouaF9pzF00bvtcrwK+oj97tBgkqY8NaD+/l5VkTYtdPPFY9lG9JGu04lNt6396hjdJbC2Wfb5ighqPRH36Qu/RbyABznPuv8Vmpe6Yljva2fx67v1xp893YUX1cgOyjR3z6SIK+fVD7yThPNjz+Iin7JGA8hWVTtJGzpM0EVOe9Y5kc04hbiyJ4oQz89dR+cBI+E6WVHDEhuoC+qhrXd07XQ1/K5/YlaLhISPKE+kcJ8g6V/oxDAiJey0HBqSZCMTVn/38Cos/okPX0IUNfyMqlTifyGxk1YrK2xaMi0yA2XQ4AtEl+51SNhQHRVvAdOyKxJWovbRqzFUn8D7F0N3NKvbQsibfi2bC6aeTY8HA16bvlfFTG1xVUm/KElzVqClwzzObNkQjt9FjlP6y8T9upcDm6PnRs63XLaTh5uyRo7ds8sD1S+x3LSISZ6RzVYPmreqDGyk9wfLQKzTbeBaQQPPFk7xyZOnIm41PeqFoeYE4ZAKnGwaUNj+xt3qfdGk2HVPv8jO//gKzPq2FQq5Z+FrpAalR8EyqAJofSF8Jet2LNR4ESDd1sEQUlTMC7ZCv7zkYq5Gq44wfNI4dwlJKokydPWjAEdEvnrAerk6J+O97k9u+ZvAIZyTJIqw9qdtuuxT02EXT9KDXZpGvLuHkJoaS2p4dnVWw+LzwLyLzgTAXtlXAwQS7JKtDyQRUaYyfqhWKLMxR2WQ2+1oToBX5KSGBGQlmrIIJbVrOsVdFlrKqNvG+ExAwO0Uu8BYMyi2LEHnG/LMIEZfznJ8bkh7j0U7ovBhAJeN2T2o3pmfsauDOira9Uxbhy11jm3jUxMZh1c71oHoVz+fujDZZwH6eHNiHSXA/aYP3SeHjuKsJ+Qgf3BP/e8JqHBsFXfRCI5Tx0czGfNYazkixkH8X7PJOuSaczy09U+4zfrG/4EPedV72iatN7v4mrQWvkVhRVM648vQw/Lhh3x/1acaFPEpQMxG25jwQcCREeCZPV9UKOwLiCr5Girfaw8tjLc0AvioSr8emj/3SrFqFb9M/u+v7GFubPCto8DpOb+t6saG9tF//ooE+rSA71HWj2p6dYWQyzmh2JE6AkyIWBrKEqZkRRVNebLK7yDJ07b6hZLENRFD/enkWwn1T2t1R+bW3RpsO4j/2+VK2psCUCjvaY2gYNnfNtMmDR3DCsM4M+4eB5puEkxI+nhgoi3UhXmL4aE3JEMrLd+VwbVxxVgG3oteJnctQqJKLO/3c68/SqffhxGC0Sh7G8QFOwH+k5Gp+z9N4XGeCIccuawVcuvEosp8UTfEUxe3DUlPUBDOTxQETkk0/3igoD+3/eTMAp1Od0+kQ5adkP94TeAiG7kOFQZzI/lONWjBe/3T2Z49LicTwPmbH5kIgmEOgd7WO49mPlFW88GBJ7c6B+dOxW9T6U1eMihgqNMElHDbcnpQNIcxOVN/yVLl3dC/Z4i5GpZYOwjsy6Rh3CdG/yb3fhovE+eQB6p3P/mpdabFFNpjKZnnoGznXjXgJsP/t9afGVDymMvUZ6pWkaZhFY4XwdgWggowgPcikcaNu5wgibOWF6lScBuF9UvgGlibJ++yRwfxr948AAEBNKf8WTyY51L3Sss0WGbRkZRmvApndXLuUFqvQn4qjHcwNmA8zlDYf/je7vsQZ8TAWAyzwK1BfIKygx/sAjQBE9hH0h4x3bFEuadSsw8lgzA/5vAP8gCEvw2Kv6VjMCRtNQLg9BypMJGybjtgAAbadAxAZuFPcOV+XERDYM97ZNLycQ2rf8jpbRyKY6naRYbdM+Bz8/MkUZsLxwCVG8kP8E36h/gcEADnAAAE/MkyAAAAAAAAAAAA=;connectable=0;" parent="1" vertex="1">
          <mxGeometry x="40" y="40" width="775" height="450" as="geometry" />
        </mxCell>
        <mxCell id="1OXQ0apKLfX8KrLx_QUD-7" value="" style="endArrow=none;html=1;rounded=1;strokeWidth=5;startArrow=oval;startFill=0;strokeColor=#CCCC00;edgeStyle=orthogonalEdgeStyle;curved=0;entryX=0;entryY=0.5;entryDx=0;entryDy=0;" parent="1" target="1OXQ0apKLfX8KrLx_QUD-21" edge="1">
          <mxGeometry width="50" height="50" relative="1" as="geometry">
            <mxPoint x="555" y="257" as="sourcePoint" />
            <mxPoint x="810" y="90" as="targetPoint" />
            <Array as="points">
              <mxPoint x="530" y="257" />
              <mxPoint x="530" y="80" />
            </Array>
          </mxGeometry>
        </mxCell>
        <mxCell id="1OXQ0apKLfX8KrLx_QUD-21" value="MOSI" style="rounded=1;html=1;strokeWidth=5;strokeColor=#CCCC00;align=center;arcSize=50;glass=0;shadow=0;whiteSpace=wrap;spacing=2;spacingBottom=0;" parent="1" vertex="1">
          <mxGeometry x="850" y="65" width="56.25" height="30" as="geometry" />
        </mxCell>
        <mxCell id="1OXQ0apKLfX8KrLx_QUD-29" value="" style="endArrow=none;html=1;rounded=1;strokeWidth=5;startArrow=oval;startFill=0;strokeColor=#80ff80;edgeStyle=orthogonalEdgeStyle;curved=0;entryX=0;entryY=0.5;entryDx=0;entryDy=0;" parent="1" target="1OXQ0apKLfX8KrLx_QUD-30" edge="1">
          <mxGeometry width="50" height="50" relative="1" as="geometry">
            <mxPoint x="555" y="106" as="sourcePoint" />
            <mxPoint x="820" y="130" as="targetPoint" />
            <Array as="points">
              <mxPoint x="700" y="106" />
              <mxPoint x="700" y="120" />
            </Array>
          </mxGeometry>
        </mxCell>
        <mxCell id="1OXQ0apKLfX8KrLx_QUD-30" value="VCC" style="rounded=1;html=1;strokeWidth=5;strokeColor=#80ff80;align=center;arcSize=50;glass=0;shadow=0;whiteSpace=wrap;spacing=2;spacingBottom=0;" parent="1" vertex="1">
          <mxGeometry x="850" y="105" width="56.25" height="30" as="geometry" />
        </mxCell>
        <mxCell id="1OXQ0apKLfX8KrLx_QUD-31" value="" style="endArrow=none;html=1;rounded=1;strokeWidth=5;startArrow=oval;startFill=0;strokeColor=#FF3399;edgeStyle=orthogonalEdgeStyle;curved=0;entryX=0;entryY=0.5;entryDx=0;entryDy=0;" parent="1" target="1OXQ0apKLfX8KrLx_QUD-32" edge="1">
          <mxGeometry width="50" height="50" relative="1" as="geometry">
            <mxPoint x="571" y="140" as="sourcePoint" />
            <mxPoint x="820" y="170" as="targetPoint" />
            <Array as="points">
              <mxPoint x="700" y="140" />
              <mxPoint x="700" y="160" />
            </Array>
          </mxGeometry>
        </mxCell>
        <mxCell id="1OXQ0apKLfX8KrLx_QUD-32" value="GND" style="rounded=1;html=1;strokeWidth=5;strokeColor=#FF3399;align=center;arcSize=50;glass=0;shadow=0;whiteSpace=wrap;spacing=2;spacingBottom=0;" parent="1" vertex="1">
          <mxGeometry x="850" y="145" width="56.25" height="30" as="geometry" />
        </mxCell>
        <mxCell id="1OXQ0apKLfX8KrLx_QUD-33" value="" style="endArrow=none;html=1;rounded=1;strokeWidth=5;startArrow=oval;startFill=0;strokeColor=#CCFFFF;edgeStyle=orthogonalEdgeStyle;curved=0;entryX=0;entryY=0.5;entryDx=0;entryDy=0;" parent="1" target="1OXQ0apKLfX8KrLx_QUD-34" edge="1">
          <mxGeometry width="50" height="50" relative="1" as="geometry">
            <mxPoint x="571" y="274" as="sourcePoint" />
            <mxPoint x="830" y="250" as="targetPoint" />
            <Array as="points">
              <mxPoint x="700" y="274" />
              <mxPoint x="700" y="270" />
            </Array>
          </mxGeometry>
        </mxCell>
        <mxCell id="1OXQ0apKLfX8KrLx_QUD-34" value="RST" style="rounded=1;html=1;strokeWidth=5;strokeColor=#CCFFFF;align=center;arcSize=50;glass=0;shadow=0;whiteSpace=wrap;spacing=2;spacingBottom=0;" parent="1" vertex="1">
          <mxGeometry x="850" y="255" width="56.25" height="30" as="geometry" />
        </mxCell>
        <mxCell id="1OXQ0apKLfX8KrLx_QUD-35" value="" style="endArrow=none;html=1;rounded=1;strokeWidth=5;startArrow=oval;startFill=0;strokeColor=#FF2E1F;edgeStyle=orthogonalEdgeStyle;curved=0;entryX=0;entryY=0.5;entryDx=0;entryDy=0;" parent="1" target="1OXQ0apKLfX8KrLx_QUD-40" edge="1">
          <mxGeometry width="50" height="50" relative="1" as="geometry">
            <mxPoint x="555" y="274" as="sourcePoint" />
            <mxPoint x="829.99" y="365" as="targetPoint" />
            <Array as="points">
              <mxPoint x="520" y="274" />
              <mxPoint x="520" y="360" />
            </Array>
          </mxGeometry>
        </mxCell>
        <mxCell id="1OXQ0apKLfX8KrLx_QUD-36" value="SCK" style="rounded=1;html=1;strokeWidth=5;strokeColor=#FF8000;align=center;arcSize=50;glass=0;shadow=0;whiteSpace=wrap;spacing=2;spacingBottom=0;" parent="1" vertex="1">
          <mxGeometry x="850" y="315" width="56.25" height="30" as="geometry" />
        </mxCell>
        <mxCell id="1OXQ0apKLfX8KrLx_QUD-37" value="" style="endArrow=none;html=1;rounded=1;strokeWidth=5;startArrow=oval;startFill=0;strokeColor=#B266FF;edgeStyle=orthogonalEdgeStyle;curved=0;entryX=0;entryY=0.5;entryDx=0;entryDy=0;" parent="1" target="1OXQ0apKLfX8KrLx_QUD-38" edge="1">
          <mxGeometry width="50" height="50" relative="1" as="geometry">
            <mxPoint x="571" y="290" as="sourcePoint" />
            <mxPoint x="820" y="280" as="targetPoint" />
            <Array as="points">
              <mxPoint x="700" y="290" />
              <mxPoint x="700" y="300" />
            </Array>
          </mxGeometry>
        </mxCell>
        <mxCell id="1OXQ0apKLfX8KrLx_QUD-38" value="NSS/SDA" style="rounded=1;html=1;strokeWidth=5;strokeColor=#B266FF;align=center;arcSize=50;glass=0;shadow=0;whiteSpace=wrap;spacing=2;spacingBottom=0;" parent="1" vertex="1">
          <mxGeometry x="850" y="285" width="56.25" height="30" as="geometry" />
        </mxCell>
        <mxCell id="1OXQ0apKLfX8KrLx_QUD-39" value="" style="endArrow=none;html=1;rounded=1;strokeWidth=5;startArrow=oval;startFill=0;strokeColor=#FF8000;edgeStyle=orthogonalEdgeStyle;curved=0;entryX=0;entryY=0.5;entryDx=0;entryDy=0;" parent="1" target="1OXQ0apKLfX8KrLx_QUD-36" edge="1">
          <mxGeometry width="50" height="50" relative="1" as="geometry">
            <mxPoint x="556" y="290" as="sourcePoint" />
            <mxPoint x="840" y="320" as="targetPoint" />
            <Array as="points">
              <mxPoint x="530" y="290" />
              <mxPoint x="530" y="330" />
            </Array>
          </mxGeometry>
        </mxCell>
        <mxCell id="1OXQ0apKLfX8KrLx_QUD-40" value="MISO" style="rounded=1;html=1;strokeWidth=5;strokeColor=#FF2E1F;align=center;arcSize=50;glass=0;shadow=0;whiteSpace=wrap;spacing=2;spacingBottom=0;" parent="1" vertex="1">
          <mxGeometry x="850" y="345" width="56.25" height="30" as="geometry" />
        </mxCell>
      </root>
    </mxGraphModel>
  </diagram>
</mxfile>
